<svg xmlns="http://www.w3.org/2000/svg" viewBox="0 0 16 16" class="design-iconfont" width="128" height="128">
  <path d="M8,16 C3.581722,16 0,12.418278 0,8 C0,3.581722 3.581722,0 8,0 C12.418278,0 16,3.581722 16,8 C16,12.418278 12.418278,16 8,16 Z M7.99999991,1 C5.49914086,1 3.18825169,2.33419242 1.9378221,4.5 C0.687392513,6.66580752 0.687392513,9.33419244 1.9378221,11.5 C3.18825169,13.6658076 5.49914086,15 7.99999991,15 C11.8659932,15 14.9999999,11.8659932 14.9999999,8 C14.9999999,4.13400679 11.8659932,1 7.99999991,1 L7.99999991,1 Z M9.233,7.997 C8.489,8.436 8.278,8.764 8.278,9.38 L8.278,9.76 L7.253,9.76 L7.253,9.221 C7.247,8.448 7.622,7.921 8.424,7.44 C9.104,7.024 9.368,6.655 9.368,6.028 C9.368,5.301 8.805,4.768 7.932,4.768 C7.048,4.768 6.485,5.29 6.421,6.128 L5.419,6.128 C5.483,4.862 6.327,3.854 7.973,3.854 C9.45,3.854 10.458,4.768 10.458,5.975 C10.458,6.895 9.983,7.546 9.233,7.997 L9.233,7.997 Z M7.768,11.096 C8.149,11.096 8.436,11.383 8.436,11.764 C8.4390072,11.9420694 8.36959488,12.1137307 8.2436628,12.2396628 C8.11773072,12.3655949 7.94606948,12.4350072 7.768,12.432 C7.59017938,12.4341688 7.41900795,12.364487 7.29326044,12.2387395 C7.16751293,12.1129921 7.09783122,11.9418206 7.1,11.764 C7.1,11.383 7.393,11.096 7.768,11.096 L7.768,11.096 Z" fill-rule="nonzero"></path>
</svg>